<svg width="1024" height="1024" viewBox="0 0 1024 1024" fill="none" xmlns="http://www.w3.org/2000/svg">
  <defs>
    <!-- Etiket gövdesi: köşesi pahlı (chamfer) yuvarlatılmış kart -->
    <clipPath id="tagClip">
      <path d="M 452 330 L 626 330 A 26 26 0 0 1 652 356 L 652 668 A 26 26 0 0 1 626 694 L 398 694 A 26 26 0 0 1 372 668 L 372 410 Z"/>
    </clipPath>
  </defs>

  <!-- Mürekkep zemin (macOS squircle, kenar boşluklu) -->
  <rect x="64" y="64" width="896" height="896" rx="200" fill="#191613"/>

  <!-- Askı ipi halkası (kağıt) -->
  <ellipse cx="440" cy="322" rx="44" ry="52" fill="none" stroke="#f7f5f1" stroke-width="15"/>

  <!-- Swing-tag gövdesi (kağıt) -->
  <path d="M 452 330 L 626 330 A 26 26 0 0 1 652 356 L 652 668 A 26 26 0 0 1 626 694 L 398 694 A 26 26 0 0 1 372 668 L 372 410 Z" fill="#f7f5f1"/>

  <!-- Fiyat şeridi: signal kırmızı (etikete kırpılı) -->
  <g clip-path="url(#tagClip)">
    <rect x="360" y="558" width="304" height="54" fill="#ff3b2f"/>
  </g>

  <!-- İp deliği (zemini gösterir) -->
  <circle cx="424" cy="398" r="22" fill="#191613"/>
</svg>
